<?xml version="1.0" encoding="utf-8"?>
<!-- Generator: Adobe Illustrator 14.0.0, SVG Export Plug-In . SVG Version: 6.00 Build 43363)  -->
<!DOCTYPE svg PUBLIC "-//W3C//DTD SVG 1.1//EN" "http://www.w3.org/Graphics/SVG/1.1/DTD/svg11.dtd">
<svg version="1.1" id="Calque_1" xmlns="http://www.w3.org/2000/svg" xmlns:xlink="http://www.w3.org/1999/xlink" x="0px" y="0px"
	 width="250px" height="113px" viewBox="0 0 250 113" enable-background="new 0 0 250 113" xml:space="preserve">
<g id="layer1">
	<g>
		<path id="path2618" d="M18.055,1.356c34.729,0,49.06,0.917,87.262,57.399c0,0,20.601,27.312,45.609,25.925
			c0,0,17.132,3.686,32.401-31.479C198.608,18.014,211.109-1.429,250,3.655c0,0-18.055,15.74-20.611,22.452
			c-2.539,6.717-43.896,56.716-66.505,60.189c3.312,0.929,7.948,2.069,15.807,0.688c0,0,8.099,0.47,9.38,4.396
			c-7.981-0.688-34.365,7.182-39.92,11.354c-5.543,4.178-24.582,15.303-39.841,3.948c3.267-0.48,21.534-3.848,29.991-11.992
			c-14.229,0.162-37.828-4.469-55.436-20.896C65.297,57.357,22.681,7.816,0,4.114L18.055,1.356"/>
	</g>
</g>
</svg>
