<?xml version="1.0" encoding="utf-8"?>
<!-- Generator: Adobe Illustrator 14.0.0, SVG Export Plug-In . SVG Version: 6.00 Build 43363)  -->
<!DOCTYPE svg PUBLIC "-//W3C//DTD SVG 1.1//EN" "http://www.w3.org/Graphics/SVG/1.1/DTD/svg11.dtd">
<svg version="1.1" id="Calque_1" xmlns="http://www.w3.org/2000/svg" xmlns:xlink="http://www.w3.org/1999/xlink" x="0px" y="0px"
	 width="250px" height="154px" viewBox="0 0 250 154" enable-background="new 0 0 250 154" xml:space="preserve">
<path d="M250.5,114.661c0,21.24-17.222,38.462-38.462,38.462v0.3H48.577C22.022,153.423,0.5,131.9,0.5,105.346
	c0-23.287,16.564-42.706,38.556-47.119c0-0.319-0.094-0.62-0.094-0.958c0-31.87,25.823-57.692,57.693-57.692
	c22.498,0,41.767,12.996,51.288,31.775c5.033-1.766,10.366-2.93,16.02-2.93c26.348,0,47.683,21.184,48.021,47.477h0.056v0.3
	C233.278,76.199,250.5,93.421,250.5,114.661z"/>
</svg>
