<?xml version="1.0" encoding="utf-8"?>
<!-- Generator: Adobe Illustrator 14.0.0, SVG Export Plug-In . SVG Version: 6.00 Build 43363)  -->
<!DOCTYPE svg PUBLIC "-//W3C//DTD SVG 1.1//EN" "http://www.w3.org/Graphics/SVG/1.1/DTD/svg11.dtd">
<svg version="1.1" id="Calque_1" xmlns="http://www.w3.org/2000/svg" xmlns:xlink="http://www.w3.org/1999/xlink" x="0px" y="0px"
	 width="250px" height="250px" viewBox="0 0 250 250" enable-background="new 0 0 250 250" xml:space="preserve">
<path d="M125,0C55.969,0,0,55.969,0,125c0,69.031,55.969,125,125,125c69.031,0,125-55.969,125-125C250,55.969,194.031,0,125,0z
	 M125,234.375c-60.303,0-109.375-49.072-109.375-109.375S64.697,15.625,125,15.625S234.375,64.697,234.375,125
	S185.303,234.375,125,234.375z M163.849,129.807c2.977,5.035,4.471,10.91,4.471,17.639c0,10.33-3.082,18.937-9.231,25.818
	c-6.149,6.896-15.029,10.956-26.642,12.177v17.685h-14.801v-17.594c-19.363-1.983-31.342-13.244-35.965-33.752l22.888-5.967
	c2.121,12.894,9.14,19.333,21.058,19.333c5.569,0,9.688-1.373,12.313-4.135s3.937-6.089,3.937-9.995c0-4.043-1.312-7.11-3.937-9.186
	c-2.625-2.091-8.469-4.73-17.517-7.935c-8.133-2.823-14.496-5.6-19.074-8.377c-4.578-2.747-8.301-6.607-11.154-11.566
	c-2.854-4.975-4.288-10.773-4.288-17.365c0-8.652,2.563-16.449,7.66-23.376c5.097-6.913,13.123-11.139,24.079-12.68V46.875h14.801
	v13.657c16.541,1.984,27.253,11.337,32.12,28.076l-20.386,8.362c-3.982-11.475-10.117-17.212-18.448-17.212
	c-4.181,0-7.538,1.282-10.055,3.845c-2.533,2.563-3.799,5.676-3.799,9.323c0,3.724,1.221,6.577,3.662,8.576
	c2.426,1.983,7.66,4.44,15.656,7.385c8.789,3.204,15.686,6.241,20.676,9.094C156.876,120.834,160.858,124.786,163.849,129.807z"/>
</svg>
