<?xml version="1.0" encoding="utf-8"?>
<!-- Generator: Adobe Illustrator 14.0.0, SVG Export Plug-In . SVG Version: 6.00 Build 43363)  -->
<!DOCTYPE svg PUBLIC "-//W3C//DTD SVG 1.1//EN" "http://www.w3.org/Graphics/SVG/1.1/DTD/svg11.dtd">
<svg version="1.1" id="Calque_1" xmlns="http://www.w3.org/2000/svg" xmlns:xlink="http://www.w3.org/1999/xlink" x="0px" y="0px"
	 width="250px" height="115px" viewBox="0 0 250 115" enable-background="new 0 0 250 115" xml:space="preserve">
<g id="Layer_5">
	<g>
		<path d="M0.259,90.376c-0.291,0.606-0.27,1.047,0.016,1.343c3.316,3.514,43.578-13.085,53.277-17.982
			c2.922-1.475,7.012-4.53,8.586-3.246c11.69,9.539,31.319,20.675,56.141,27.738c0.636,0.18,1.248,0.824,0.49,1.664l-11.178,8.906
			c0,0-1.068,0.709,1.168,1.325c2.561,0.706,8.176,1.394,19.97,3.405c22.301,3.803,44.416-10.367,46.115-10.547
			c21.009-2.211,34.276-9.325,34.277-9.325c1.129-0.485,0.956-1.982,0.311-2.283c-3.757-3.136-10.373-5.997-10.415-9.526
			c-0.001-0.119,0.193-0.707,0.458-0.75c0.206-0.033,0.528,0.08,1.025,0.307c0.495,0.212,12.959,4.906,14.714,5.434
			c6.547,1.967,9.527-0.173,9.919-0.109c19.524-9.244,24.868-15.896,24.868-25.807c0-14.766-34.393-52.097-85.249-53.835
			c-2.233-0.276-3.354-0.737-4.455-1.131c-2.563-0.914-5.681-2.025-9.48-3.378c-18.648-6.644-40.199,0.583-45.374,2.269
			c-1.051,0.342-0.233,1.05-0.233,1.05l10.457,7.312c0.701,0.649,0.185,0.959-0.224,1.09C91.028,22.142,72.509,36.227,59.8,44.156
			c-2.516,1.57-6.33-0.491-6.33-0.491S31.554,33.094,20.78,25.871c-4.938-3.31-8.866-5.672-11.956-7.256
			c0-0.001-0.003-0.003-0.003-0.004C-7.615,11.118,3.926,29.62,4.088,29.89c0.026,0.047,0.058,0.094,0.084,0.14
			c1.002,1.656,2.088,3.358,3.201,5.047c0.004,0.004,0.008,0.01,0.012,0.015c4.935,7.487,10.384,14.711,11.181,16.423
			C26.401,68.326,5.925,78.477,0.259,90.376z M202.339,43.765c0-3.646,2.904-6.603,6.485-6.603c3.58,0,6.484,2.957,6.484,6.603
			c0,3.647-2.904,6.604-6.484,6.604C205.243,50.369,202.339,47.412,202.339,43.765z M177.409,20.3
			c0.344-0.416,0.362,0.111,0.362,0.111s-9.816,18.045-8.835,32.779c1.312,19.66,11.42,34.871,11.42,34.871
			c0.211,0.778-0.152,0.236-0.552-0.121C139.503,51.716,173.914,24.528,177.409,20.3z"/>
	</g>
</g>
</svg>
