<?xml version="1.0" encoding="utf-8"?>
<!-- Generator: Adobe Illustrator 14.0.0, SVG Export Plug-In . SVG Version: 6.00 Build 43363)  -->
<!DOCTYPE svg PUBLIC "-//W3C//DTD SVG 1.1//EN" "http://www.w3.org/Graphics/SVG/1.1/DTD/svg11.dtd">
<svg version="1.1" id="Calque_1" xmlns="http://www.w3.org/2000/svg" xmlns:xlink="http://www.w3.org/1999/xlink" x="0px" y="0px"
	 width="117px" height="100px" viewBox="0 0 117 100" enable-background="new 0 0 117 100" xml:space="preserve">
<g>
	<path d="M58.497,99.286c1.111,0,2.056-0.386,2.827-1.155l39.979-38.503C111.101,49.831,116,40.205,116,30.75
		c0-9.414-2.718-16.772-8.151-22.076c-5.435-5.305-12.941-7.958-22.525-7.958c-2.653,0-5.356,0.46-8.117,1.38
		c-2.761,0.92-5.328,2.16-7.702,3.722c-2.374,1.561-4.416,3.026-6.128,4.395c-1.712,1.369-3.338,2.822-4.877,4.364
		c-1.539-1.54-3.165-2.995-4.876-4.364c-1.712-1.369-3.753-2.834-6.128-4.395c-2.375-1.562-4.943-2.801-7.701-3.722
		c-2.759-0.92-5.466-1.38-8.118-1.38c-9.583,0-17.091,2.653-22.524,7.958C3.716,13.979,1,21.338,1,30.75
		c0,2.865,0.502,5.818,1.507,8.855c1.006,3.038,2.15,5.625,3.433,7.765c1.283,2.139,2.738,4.223,4.363,6.255
		c1.626,2.034,2.813,3.437,3.562,4.205s1.337,1.326,1.765,1.667l40.043,38.633C56.443,98.9,57.385,99.286,58.497,99.286"/>
</g>
</svg>
