<?xml version="1.0" encoding="utf-8"?>
<!-- Generator: Adobe Illustrator 14.0.0, SVG Export Plug-In . SVG Version: 6.00 Build 43363)  -->
<!DOCTYPE svg PUBLIC "-//W3C//DTD SVG 1.1//EN" "http://www.w3.org/Graphics/SVG/1.1/DTD/svg11.dtd">
<svg version="1.1" id="Calque_1" xmlns="http://www.w3.org/2000/svg" xmlns:xlink="http://www.w3.org/1999/xlink" x="0px" y="0px"
	 width="117px" height="100px" viewBox="0 0 117 100" enable-background="new 0 0 117 100" xml:space="preserve">
<g>
	<g>
		<g>
			<path d="M36.6,72.91c-1.14,7.439-7.79,15.05-7.79,15.05c11.11,0.45,19.52-4.55,24.54-8.7v13.73c0,3.43,2.62,6.01,6.1,6.01
				c3.479,0,6.1-2.59,6.1-6.01V80.32c5.181,3.77,13.101,7.709,23.171,7.13c0,0-6.781-7.49-8.051-14.921
				c0,0,15.87,3.881,23.79-16.079c0,0-8.38,0.51-18.63-3.54c-2.57,1.08-4.971,1.369-6.71,1.39c1.69,4.41,5.22,8.36,5.26,8.4
				c0.53,0.579,0.67,1.409,0.37,2.14c-0.3,0.721-0.98,1.21-1.77,1.26c-0.57,0.03-1.141,0.051-1.711,0.051
				c-6.43,0-11.74-2.07-15.74-4.471c-0.59-0.359-1.159-0.72-1.689-1.09c-0.6-0.41-1.17-0.83-1.689-1.23
				c-1.49-1.149-2.68-2.26-3.53-3.139c-0.51,0.539-1.14,1.17-1.89,1.84C56.22,58.52,55.65,59,55.04,59.5
				c-0.53,0.42-1.09,0.84-1.69,1.27C49.17,63.7,43.18,66.54,35.63,66.54c-0.4,0-0.81-0.011-1.21-0.021
				c-0.78-0.029-1.48-0.51-1.79-1.229s-0.18-1.55,0.34-2.14c0.04-0.051,3.51-4.051,5.12-8.49c-0.05,0-0.1,0-0.15,0
				c-1.8,0-4.19-0.28-6.73-1.32c-10.22,4.27-18.67,3.9-18.67,3.9C20.8,77.061,36.6,72.91,36.6,72.91z"/>
			<path d="M83.07,51.74c4.1-1.11,9.189-4.27,12.529-12.69c0,0-0.279,0.02-0.789,0.02c-1.961,0-7.391-0.26-13.781-2.69
				c-2.299,1.36-4.549,1.82-6.239,1.92c1.31,2.96,3.58,5.51,3.61,5.54c0.529,0.58,0.67,1.41,0.369,2.14
				c-0.299,0.72-0.979,1.21-1.77,1.26c-0.439,0.03-0.88,0.04-1.32,0.04c-0.119,0-0.229-0.01-0.35-0.01
				c-3.811-0.06-7.09-1.05-9.801-2.36c-0.59-0.29-1.159-0.59-1.689-0.9c-0.6-0.35-1.17-0.71-1.689-1.08
				c-1.51-1.04-2.711-2.09-3.581-2.94c-0.5,0.51-1.12,1.09-1.84,1.7c-0.51,0.43-1.08,0.87-1.69,1.31c-0.53,0.38-1.09,0.75-1.69,1.11
				c-3.04,1.83-7.03,3.39-11.86,3.45c-0.1,0-0.19,0.01-0.28,0.01c-0.31,0-0.62-0.01-0.93-0.02c-0.78-0.03-1.48-0.51-1.79-1.23
				c-0.31-0.72-0.18-1.55,0.34-2.14c0.76-0.87,2.47-3.15,3.51-5.6c-1.75-0.08-4.04-0.5-6.36-1.85c-6.82,2.75-12.58,2.96-14.17,2.96
				c-0.29,0-0.44-0.01-0.44-0.01c3.44,8.25,8.49,11.349,12.58,12.429c1.51,0.4,2.88,0.521,4,0.521c1.74,0,2.85-0.29,2.85-0.29
				c-0.92,6.01-6.29,12.15-6.29,12.15c0.38,0.02,0.76,0.02,1.13,0.02c7.75,0,13.78-3.25,17.72-6.279
				c0.62-0.471,1.18-0.94,1.69-1.391c0.65-0.57,1.22-1.109,1.69-1.59c1.22-1.24,1.86-2.09,1.86-2.09s1.24,1.6,3.56,3.57
				c0.51,0.439,1.08,0.89,1.699,1.35c0.531,0.391,1.091,0.79,1.69,1.18c3.851,2.52,9.19,4.86,15.74,4.86
				c0.521,0,1.06-0.021,1.59-0.05c0,0-5.47-6.051-6.5-12.051c0,0,1.011,0.25,2.601,0.25C80.1,52.279,81.52,52.16,83.07,51.74z"/>
			<path d="M30.43,26.78c1.61,3.85,3.68,6.22,5.76,7.66c0.36,0.25,0.73,0.48,1.09,0.68c0.38,0.21,0.76,0.39,1.14,0.54
				c1.72,0.72,3.33,0.9,4.54,0.9c1.31,0,2.15-0.22,2.15-0.22c-0.7,4.54-4.75,9.18-4.75,9.18c0.29,0.01,0.57,0.02,0.85,0.02
				c1.1,0,2.15-0.09,3.16-0.25c3.65-0.57,6.68-2.04,8.98-3.6c0.62-0.42,1.18-0.84,1.69-1.25c0.65-0.53,1.22-1.03,1.69-1.49
				c1.19-1.15,1.82-1.99,1.82-1.99s1.261,1.63,3.601,3.44c0.51,0.4,1.08,0.8,1.689,1.2c0.53,0.34,1.09,0.68,1.689,1.01
				c1.91,1.03,4.191,1.92,6.791,2.35c1.07,0.18,2.189,0.28,3.359,0.28c0.391,0,0.801-0.01,1.2-0.03c0,0-4.13-4.57-4.909-9.1
				c0,0,0.76,0.19,1.959,0.19c1.211,0,2.86-0.19,4.631-0.94c0.39-0.17,0.789-0.36,1.199-0.59c0.35-0.2,0.7-0.42,1.051-0.67
				c2.069-1.47,4.129-3.88,5.68-7.79c0,0-0.211,0.01-0.6,0.01c-1.631,0-6.41-0.23-11.861-2.62c-0.75,0.28-1.549,0.49-2.42,0.59
				c0.791,1.54,1.861,2.91,2.361,3.47c0.529,0.58,0.67,1.41,0.369,2.14c-0.09,0.21-0.21,0.4-0.359,0.57
				c-0.25,0.28-0.57,0.49-0.931,0.6c-0.149,0.05-0.31,0.08-0.47,0.09c-0.34,0.02-0.689,0.03-1.03,0.03c-0.03,0-0.069,0-0.1,0
				c-2.2-0.01-4.181-0.43-5.921-1.05c-0.609-0.22-1.18-0.46-1.729-0.72c-0.899-0.43-1.729-0.9-2.47-1.39
				c-0.189-0.12-0.37-0.25-0.54-0.37c-0.91-0.64-1.67-1.28-2.27-1.84c-0.79,0.76-1.87,1.68-3.22,2.55c-0.6,0.39-1.25,0.77-1.96,1.12
				c-2.19,1.09-4.87,1.9-8,1.91c-0.02,0-0.04,0-0.05,0c-0.24,0-0.48,0-0.73-0.02c-0.23-0.01-0.45-0.06-0.65-0.14
				c-0.35-0.14-0.65-0.36-0.88-0.66c-0.1-0.13-0.19-0.27-0.25-0.42c-0.31-0.72-0.18-1.55,0.34-2.14c0.5-0.57,1.55-1.95,2.31-3.51
				c-0.91-0.09-1.75-0.31-2.53-0.59c-5.77,2.67-10.84,2.87-12.16,2.87C30.54,26.78,30.43,26.78,30.43,26.78z"/>
			<path d="M71.23,22.27c0.479-0.05,1.01-0.16,1.569-0.32c0.421-0.12,0.851-0.28,1.29-0.49c2.01-0.95,4.18-2.88,5.7-6.74
				c0,0-0.16,0.01-0.45,0.01c-2.47,0-14.47-0.69-21.01-13.73c-6.51,13.55-19.05,14.09-20.97,14.09c-0.16,0-0.25,0-0.25,0
				c1.57,3.78,3.74,5.67,5.74,6.6c0.46,0.21,0.9,0.37,1.33,0.49c0.52,0.15,1.01,0.24,1.47,0.29c0.36,0.04,0.69,0.06,0.99,0.06
				c1,0,1.64-0.17,1.64-0.17c-0.53,3.46-3.62,6.99-3.62,6.99c0.01,0,0.02,0,0.03,0c0.21,0.01,0.42,0.01,0.62,0.01
				c0.37,0,0.72-0.03,1.08-0.05c0.59-0.04,1.17-0.1,1.72-0.21c2.5-0.45,4.59-1.45,6.23-2.53c1.16-0.76,2.1-1.56,2.79-2.22
				c0.91-0.88,1.39-1.52,1.39-1.52s0.35,0.45,1.009,1.1c1.08,1.07,3,2.69,5.631,3.84c1.04,0.45,2.18,0.84,3.439,1.08
				c0.59,0.11,1.221,0.19,1.86,0.23c0.37,0.03,0.729,0.05,1.11,0.05c0.189,0,0.38-0.01,0.57-0.02c0.119,0,0.229,0,0.34-0.01
				c0,0-3.15-3.48-3.74-6.93c0,0,0.58,0.14,1.49,0.14C70.54,22.33,70.87,22.31,71.23,22.27z"/>
		</g>
	</g>
</g>
</svg>
