<?xml version="1.0" encoding="utf-8"?>
<!-- Generator: Adobe Illustrator 14.0.0, SVG Export Plug-In . SVG Version: 6.00 Build 43363)  -->
<!DOCTYPE svg PUBLIC "-//W3C//DTD SVG 1.1//EN" "http://www.w3.org/Graphics/SVG/1.1/DTD/svg11.dtd">
<svg version="1.1" id="Layer_1" xmlns="http://www.w3.org/2000/svg" xmlns:xlink="http://www.w3.org/1999/xlink" x="0px" y="0px"
	 width="91.135px" height="100px" viewBox="0 0 91.135 100" enable-background="new 0 0 91.135 100" xml:space="preserve">
<path d="M59.481,21.158c15.27,7.178,33.401,26.315,31.021,49.277H59.481V21.158L59.481,21.158z"/>
<path d="M83.946,75.07H69.785H14.916v12.664c0.777,0.207,1.547,0.435,2.251,0.777c1.713,0.754,3.63,1.219,5.613,1.219
	c1.999,0,3.914-0.465,5.622-1.219c1.741-0.822,3.718-1.307,5.779-1.307c2.054,0,4.031,0.482,5.781,1.307
	c1.707,0.754,3.611,1.219,5.607,1.219c1.995,0,3.905-0.465,5.627-1.219c1.75-0.822,3.726-1.307,5.765-1.307
	c2.062,0,4.04,0.482,5.788,1.307c1.7,0.754,3.632,1.219,5.605,1.219c0.385,0,0.75-0.096,1.109-0.139
	c0.044,0,0.044,0.043,0.089,0.043c0.253,0,0.437-0.111,0.685-0.111c0.455-0.063,0.906-0.115,1.365-0.226
	c4.082-0.854,6.717-4.067,6.717-4.067l7.938-10.158h-2.309V75.07H83.946z"/>
<path d="M54.729,6.068c-0.127-0.091-0.293-0.104-0.426,0.047c0,0.001-0.003,0.002-0.005,0.003c-0.002,0.002-0.004,0.002-0.006,0.005
	c-17.297,21.35-34.595,42.699-51.892,64.05c-0.196,0.241-0.088,0.638,0.264,0.638c17.297,0,34.595,0,51.893,0
	c0.205,0,0.375-0.17,0.375-0.373c0-21.351,0-42.701,0-64.049C54.933,6.224,54.844,6.12,54.729,6.068z"/>
</svg>
