<?xml version="1.0" encoding="utf-8"?>
<!-- Generator: Adobe Illustrator 14.0.0, SVG Export Plug-In . SVG Version: 6.00 Build 43363)  -->
<!DOCTYPE svg PUBLIC "-//W3C//DTD SVG 1.0//EN" "http://www.w3.org/TR/2001/REC-SVG-20010904/DTD/svg10.dtd">
<svg version="1.0" id="Calque_1" xmlns="http://www.w3.org/2000/svg" xmlns:xlink="http://www.w3.org/1999/xlink" x="0px" y="0px"
	 width="95px" height="30px" viewBox="0 0 95 30" enable-background="new 0 0 95 30" xml:space="preserve">
<path d="M68.227,30c-9.785,0-18.119-3.441-25-10.322c-4.301-4.301-9.436-6.452-15.403-6.452c-5.968,0-11.103,2.151-15.403,6.452
	c-1.29,1.29-2.877,1.935-4.758,1.935c-1.882,0-3.467-0.645-4.758-1.935c-1.29-1.291-1.936-2.85-1.936-4.678s0.646-3.387,1.936-4.678
	C9.786,3.441,18.092,0,27.824,0c9.731,0,18.037,3.441,24.919,10.322c4.301,4.301,9.434,6.451,15.403,6.451
	c5.967,0,11.102-2.15,15.402-6.451c1.289-1.29,2.876-1.935,4.757-1.935c1.883,0,3.47,0.645,4.759,1.935
	C94.355,11.613,95,13.172,95,15s-0.645,3.387-1.936,4.678C86.183,26.559,77.903,30,68.227,30z"/>
</svg>
